<?xml version="1.0" encoding="UTF-8"?>
<!DOCTYPE svg PUBLIC "-//W3C//DTD SVG 1.1//EN" "http://www.w3.org/Graphics/SVG/1.1/DTD/svg11.dtd">
<!-- Creator: CorelDRAW 2020 (64-Bit) -->
<svg xmlns="http://www.w3.org/2000/svg" xml:space="preserve" width="138.217mm" height="148.98mm" version="1.1" style="shape-rendering:geometricPrecision; text-rendering:geometricPrecision; image-rendering:optimizeQuality; fill-rule:evenodd; clip-rule:evenodd"
viewBox="0 0 13305.84 14341.95"
 xmlns:xlink="http://www.w3.org/1999/xlink"
 xmlns:xodm="http://www.corel.com/coreldraw/odm/2003">
 <defs>
  <style type="text/css">
   <![CDATA[
    .fil0 {fill:#FF8B2C}
   ]]>
  </style>
 </defs>
 <g id="Layer_x0020_1">
  <metadata id="CorelCorpID_0Corel-Layer"/>
  <path class="fil0" d="M6317.37 939.24c-1063.86,54.89 -2229.16,929.36 -2835.25,1644.71 -217.35,256.54 -405.88,560.16 -590.15,906.84 -908.52,1709.24 -419.42,3961.7 -1832.48,5637.4l-684.66 809.51c-193.58,229.95 -493.66,638.03 -325.49,1100.71 129.33,355.81 430.05,549.35 917.86,577.36 939.2,53.92 2032.64,3.51 2989.03,4.13l5943.19 -0.23c638.56,0.29 2394.74,91.68 2852.18,-137.67 565.83,-283.69 576.08,-892.98 124.25,-1482.37 -646.72,-843.61 -1019.9,-1004.96 -1502.22,-2232.55 -280.54,-714.04 -431.25,-1654.96 -521.35,-2467.53 -73.42,-662.23 -121.65,-625.52 -605.83,-891.85 -698.07,-383.99 -1156.02,-782.5 -1426.37,-1558.72 -115.18,-330.71 -165.69,-1030.26 -304.45,-1191.98 -116.27,-135.52 -685.65,-451.02 -943.14,-553.04 -401.46,-159.05 -802.75,-188.05 -1255.13,-164.71z"/>
  <path class="fil0" d="M11206.98 6.75c-983.07,81.09 -1842.09,999.78 -1721.85,2101.52 30.24,277.01 118.35,535.34 223.44,732.28 49.85,93.41 135.86,221.71 189.75,287.26 1151.69,1400.8 3585.61,537.36 3397.17,-1392.97 -95.55,-978.76 -987.09,-1818.95 -2088.51,-1728.09z"/>
  <path class="fil0" d="M8733.84 12339.67l-4443.28 -13.03c86.68,443.94 200.24,772.5 454.71,1115.17 223.73,301.27 539.64,533.05 891.98,707.99 250.72,124.49 557.2,187.56 865.7,191.87 1265.88,17.7 2015.43,-825.33 2230.9,-2002z"/>
 </g>
</svg>
